<svg width="20" height="20" viewBox="0 0 31 32" fill="none" xmlns="http://www.w3.org/2000/svg">
<path d="M30.5389 6.58266C29.4603 7.07599 28.3017 7.40932 27.0837 7.55999C28.3405 6.78371 29.2807 5.56195 29.729 4.12266C28.5482 4.84664 27.2559 5.35625 25.9082 5.62932C25.002 4.63048 23.8016 3.96843 22.4935 3.74596C21.1854 3.52349 19.8427 3.75305 18.6739 4.39899C17.5052 5.04494 16.5757 6.07114 16.0298 7.31826C15.4839 8.56538 15.3521 9.96366 15.655 11.296C13.2624 11.172 10.9219 10.5301 8.78517 9.41186C6.64849 8.29367 4.76346 6.72421 3.25241 4.80532C2.73575 5.72532 2.43866 6.79199 2.43866 7.92799C2.43809 8.95065 2.68206 9.95765 3.14892 10.8596C3.61579 11.7616 4.29112 12.5307 5.115 13.0987C4.15952 13.0673 3.22513 12.8008 2.38958 12.3213V12.4013C2.38948 13.8356 2.87012 15.2258 3.74994 16.336C4.62976 17.4461 5.85457 18.2079 7.21654 18.492C6.33018 18.7396 5.40089 18.7761 4.49887 18.5987C4.88314 19.8328 5.63166 20.912 6.63964 21.6852C7.64762 22.4584 8.8646 22.8869 10.1202 22.9107C7.98874 24.6379 5.35639 25.5748 2.64662 25.5707C2.16661 25.5708 1.68701 25.5419 1.21029 25.484C3.96086 27.3096 7.16273 28.2784 10.4328 28.2747C21.5024 28.2747 27.5538 18.8107 27.5538 10.6027C27.5538 10.336 27.5474 10.0667 27.5357 9.79999C28.7128 8.92129 29.7289 7.83318 30.5363 6.58666L30.5389 6.58266V6.58266Z" fill="white"/>
</svg>
