<svg width="31" height="30" viewBox="0 0 31 30" fill="none" xmlns="http://www.w3.org/2000/svg">
<path fill-rule="evenodd" clip-rule="evenodd" d="M26.8421 4.02375C26.9323 4.11083 27.0039 4.21429 27.0527 4.32818C27.1016 4.44208 27.1267 4.56418 27.1267 4.6875C27.1267 4.81081 27.1016 4.93291 27.0527 5.04681C27.0039 5.16071 26.9323 5.26416 26.8421 5.35125L5.5296 25.9762C5.34769 26.1523 5.10098 26.2512 4.84372 26.2512C4.58647 26.2512 4.33975 26.1523 4.15785 25.9762C3.97594 25.8002 3.87375 25.5615 3.87375 25.3125C3.87375 25.0635 3.97594 24.8248 4.15785 24.6487L25.4703 4.02375C25.5603 3.93644 25.6672 3.86717 25.7849 3.81991C25.9026 3.77265 26.0288 3.74832 26.1562 3.74832C26.2836 3.74832 26.4098 3.77265 26.5275 3.81991C26.6452 3.86717 26.7521 3.93644 26.8421 4.02375V4.02375Z" fill="black"/>
<path fill-rule="evenodd" clip-rule="evenodd" d="M4.15787 4.02375C4.06765 4.11083 3.99607 4.21429 3.94724 4.32818C3.8984 4.44208 3.87326 4.56418 3.87326 4.6875C3.87326 4.81081 3.8984 4.93291 3.94724 5.04681C3.99607 5.16071 4.06765 5.26416 4.15787 5.35125L25.4704 25.9762C25.6523 26.1523 25.899 26.2512 26.1562 26.2512C26.4135 26.2512 26.6602 26.1523 26.8421 25.9762C27.024 25.8002 27.1262 25.5615 27.1262 25.3125C27.1262 25.0635 27.024 24.8248 26.8421 24.6487L5.52962 4.02375C5.43963 3.93644 5.33273 3.86717 5.21503 3.81991C5.09734 3.77265 4.97117 3.74832 4.84374 3.74832C4.71632 3.74832 4.59015 3.77265 4.47245 3.81991C4.35476 3.86717 4.24786 3.93644 4.15787 4.02375V4.02375Z" fill="black"/>
</svg>
