<?xml version="1.0" encoding="iso-8859-1"?>
<!-- Generator: Adobe Illustrator 18.0.0, SVG Export Plug-In . SVG Version: 6.00 Build 0)  -->
<!DOCTYPE svg PUBLIC "-//W3C//DTD SVG 1.1//EN" "http://www.w3.org/Graphics/SVG/1.1/DTD/svg11.dtd">
<svg version="1.1" id="Capa_1" xmlns="http://www.w3.org/2000/svg" xmlns:xlink="http://www.w3.org/1999/xlink" x="0px" y="0px"
	 viewBox="0 0 263.333 263.333" style="enable-background:new 0 0 263.333 263.333;" xml:space="preserve">
<g>
	<path d="M257.333,25.497h-32.867c0.124-0.48,0.196-0.98,0.196-1.499c0-3.313-2.687-6-6-6h-46.51
		c0.012-0.161,0.025-0.321,0.025-0.485c0-3.581-2.904-6.485-6.485-6.485h-68.05c-3.581,0-6.485,2.903-6.485,6.485
		c0,0.164,0.013,0.324,0.025,0.485h-46.51c-3.313,0-6,2.687-6,6c0,0.518,0.073,1.019,0.196,1.499H6c-3.314,0-6,2.686-6,6v148.492
		c0,3.313,2.686,6,6,6h115.926l-34.101,57.244c-1.696,2.847-0.763,6.53,2.084,8.226c2.848,1.696,6.53,0.763,8.226-2.084
		l27.532-46.217v33.019c0,3.313,2.687,6,6,6s6-2.687,6-6v-33.019l27.532,46.217c1.123,1.884,3.116,2.93,5.161,2.93
		c1.044,0,2.103-0.273,3.065-0.846c2.847-1.696,3.78-5.378,2.084-8.226l-34.101-57.244h115.926c3.314,0,6-2.687,6-6V31.497
		C263.333,28.183,260.647,25.497,257.333,25.497z M251.333,173.989H12V37.497h239.333V173.989z"/>
</g>
<g>
</g>
<g>
</g>
<g>
</g>
<g>
</g>
<g>
</g>
<g>
</g>
<g>
</g>
<g>
</g>
<g>
</g>
<g>
</g>
<g>
</g>
<g>
</g>
<g>
</g>
<g>
</g>
<g>
</g>
</svg>
