<svg width="69" height="74" viewBox="0 0 69 74" fill="none" xmlns="http://www.w3.org/2000/svg">
<path d="M54.625 9.24996C49.8697 9.24996 46 13.4001 46 18.5C46 20.0478 46.391 21.4846 47.0178 22.7704L43.8092 26.7849C41.9113 25.4023 39.6694 24.6642 37.375 24.6666C35.2504 24.6666 33.2781 25.3326 31.5675 26.4118L27.5022 22.052C28.3098 20.4931 28.7389 18.7415 28.75 16.9583C28.75 11.0075 24.2362 6.16663 18.6875 6.16663C13.1388 6.16663 8.625 11.0075 8.625 16.9583C8.625 22.9091 13.1388 27.75 18.6875 27.75C20.4154 27.75 22.0168 27.2381 23.437 26.4118L27.5022 30.7716C26.4492 32.6538 25.8872 34.805 25.875 37C25.875 40.074 26.9675 42.8552 28.7069 45.0197L23.8424 50.2367L23.9142 50.3138C22.7388 49.6772 21.4418 49.3415 20.125 49.3333C15.3697 49.3333 11.5 53.4835 11.5 58.5833C11.5 63.6831 15.3697 67.8333 20.125 67.8333C24.8803 67.8333 28.75 63.6831 28.75 58.5833C28.75 57.1156 28.4021 55.7497 27.8358 54.5195L27.9076 54.5965L33.5254 48.5717C34.7358 49.0342 36.018 49.3333 37.375 49.3333C43.7173 49.3333 48.875 43.8018 48.875 37C48.8626 35.0846 48.4303 33.1992 47.6129 31.4962L51.2152 26.9884C52.2617 27.4755 53.4118 27.75 54.625 27.75C59.3803 27.75 63.25 23.5998 63.25 18.5C63.25 13.4001 59.3803 9.24996 54.625 9.24996V9.24996ZM20.125 61.6666C19.3625 61.6666 18.6312 61.3418 18.0921 60.7635C17.5529 60.1853 17.25 59.401 17.25 58.5833C17.25 57.7655 17.5529 56.9813 18.0921 56.403C18.6312 55.8248 19.3625 55.5 20.125 55.5C20.8875 55.5 21.6188 55.8248 22.1579 56.403C22.6971 56.9813 23 57.7655 23 58.5833C23 59.401 22.6971 60.1853 22.1579 60.7635C21.6188 61.3418 20.8875 61.6666 20.125 61.6666ZM14.375 16.9583C14.375 14.4084 16.3099 12.3333 18.6875 12.3333C21.0651 12.3333 23 14.4084 23 16.9583C23 19.5082 21.0651 21.5833 18.6875 21.5833C16.3099 21.5833 14.375 19.5082 14.375 16.9583ZM37.375 43.1666C34.2039 43.1666 31.625 40.4009 31.625 37C31.625 33.599 34.2039 30.8333 37.375 30.8333C40.5461 30.8333 43.125 33.599 43.125 37C43.125 40.4009 40.5461 43.1666 37.375 43.1666ZM54.625 21.5833C53.8625 21.5833 53.1312 21.2584 52.5921 20.6802C52.0529 20.102 51.75 19.3177 51.75 18.5C51.75 17.6822 52.0529 16.898 52.5921 16.3197C53.1312 15.7415 53.8625 15.4166 54.625 15.4166C55.3875 15.4166 56.1188 15.7415 56.6579 16.3197C57.1971 16.898 57.5 17.6822 57.5 18.5C57.5 19.3177 57.1971 20.102 56.6579 20.6802C56.1188 21.2584 55.3875 21.5833 54.625 21.5833Z" fill="white"/>
</svg>
