<svg width="72" height="72" viewBox="0 0 72 72" fill="none" xmlns="http://www.w3.org/2000/svg">
<path fill-rule="evenodd" clip-rule="evenodd" d="M31.587 11.28C27.54 12.756 24.366 16.2075 23.0985 20.541C20.847 21.696 19.5 23.16 19.5 24.75C19.5 26.547 21.216 28.1805 24.015 29.3895C23.9337 31.0138 24.1834 32.6377 24.7491 34.1626C25.3147 35.6874 26.1843 37.0814 27.3052 38.2598C28.4261 39.4382 29.7749 40.3765 31.2696 41.0176C32.7642 41.6587 34.3736 41.9893 36 41.9893C37.6264 41.9893 39.2358 41.6587 40.7304 41.0176C42.2251 40.3765 43.5739 39.4382 44.6948 38.2598C45.8157 37.0814 46.6853 35.6874 47.2509 34.1626C47.8166 32.6377 48.0663 31.0138 47.985 29.3895C50.784 28.1805 52.5 26.547 52.5 24.75C52.5 23.1585 51.153 21.696 48.9 20.541C47.6325 16.206 44.46 12.756 40.413 11.2785C40.2518 10.6279 39.8773 10.05 39.3494 9.637C38.8214 9.22402 38.1703 8.99977 37.5 9H34.5C33.8295 8.99985 33.1783 9.22432 32.6503 9.63759C32.1223 10.0509 31.7479 10.6291 31.587 11.28V11.28ZM33 18C33.3978 18 33.7794 17.842 34.0607 17.5607C34.342 17.2794 34.5 16.8978 34.5 16.5V12H37.5V16.5C37.5 16.8978 37.658 17.2794 37.9393 17.5607C38.2206 17.842 38.6022 18 39 18C39.3978 18 39.7794 17.842 40.0607 17.5607C40.342 17.2794 40.5 16.8978 40.5 16.5V14.583C42.8805 15.798 44.802 17.9625 45.7875 20.667C45.7832 20.6844 45.7792 20.7019 45.7755 20.7195C45.7008 20.7783 45.6221 20.8319 45.54 20.88C45.111 21.135 44.403 21.414 43.422 21.669C41.4825 22.1745 38.8005 22.5 36 22.5C33.1995 22.5 30.5175 22.1745 28.578 21.669C27.597 21.414 26.889 21.135 26.46 20.88C26.3779 20.8319 26.2992 20.7783 26.2245 20.7195L26.2215 20.706C26.2187 20.6929 26.2157 20.6799 26.2125 20.667C27.198 17.9625 29.1195 15.7965 31.5 14.583V16.5C31.5 16.8978 31.658 17.2794 31.9393 17.5607C32.2206 17.842 32.6022 18 33 18ZM24.516 23.187L24.4665 23.211C23.556 23.6775 23.0055 24.1215 22.716 24.453C22.6331 24.5415 22.5633 24.6416 22.509 24.75C22.5405 24.822 22.632 24.978 22.8825 25.221C23.352 25.6755 24.189 26.223 25.4685 26.7465C28.0125 27.7875 31.7355 28.5 36 28.5C40.2645 28.5 43.9875 27.7875 46.53 26.745C47.811 26.223 48.648 25.6755 49.1175 25.221C49.368 24.978 49.4595 24.822 49.491 24.75C49.4367 24.6416 49.3669 24.5415 49.284 24.453C48.9945 24.1215 48.444 23.6775 47.5335 23.211L47.484 23.187C47.3523 23.2834 47.2162 23.3735 47.076 23.457C46.3005 23.919 45.2835 24.285 44.1765 24.573C41.9415 25.155 39 25.5 36 25.5C33 25.5 30.0585 25.155 27.8235 24.573C26.7165 24.285 25.6995 23.919 24.924 23.4555C24.7838 23.372 24.6477 23.2819 24.516 23.1855V23.187ZM49.506 24.792L49.5 24.78L49.503 24.795L49.506 24.792ZM49.506 24.705C49.5045 24.705 49.503 24.7095 49.5015 24.72C49.5027 24.7161 49.5037 24.7121 49.5045 24.708V24.7035L49.506 24.705ZM22.497 24.714L22.4955 24.705L22.4985 24.72V24.714H22.497ZM22.497 24.786V24.7785V24.783L22.4955 24.792L22.497 24.786ZM44.991 30.411C42.405 31.101 39.315 31.5 36 31.5C32.685 31.5 29.595 31.0995 27.009 30.411C27.1126 32.726 28.1051 34.9118 29.7799 36.5133C31.4547 38.1148 33.6827 39.0086 36 39.0086C38.3173 39.0086 40.5453 38.1148 42.2201 36.5133C43.8949 34.9118 44.8874 32.726 44.991 30.411V30.411Z" fill="white"/>
<path fill-rule="evenodd" clip-rule="evenodd" d="M52.0275 39.891C52.1115 39.6266 52.1206 39.3441 52.0537 39.0749C51.9868 38.8056 51.8465 38.5602 51.6485 38.3659C51.4505 38.1716 51.2024 38.0361 50.932 37.9743C50.6615 37.9125 50.3792 37.9269 50.1165 38.016C48.3778 38.6071 46.8413 39.6772 45.6838 41.103C44.5264 42.5288 43.795 44.2524 43.5739 46.0755C43.3528 47.8986 43.6509 49.7471 44.4339 51.4083C45.2169 53.0695 46.453 54.4758 48 55.4655V61.5C48 61.8978 48.158 62.2793 48.4393 62.5607C48.7206 62.842 49.1022 63 49.5 63H57C57.3978 63 57.7793 62.842 58.0607 62.5607C58.342 62.2793 58.5 61.8978 58.5 61.5V55.467C60.0478 54.4776 61.2848 53.0711 62.0684 51.4096C62.8519 49.748 63.1503 47.899 62.9292 46.0753C62.708 44.2516 61.9763 42.5274 60.8183 41.1014C59.6602 39.6753 58.123 38.6053 56.3835 38.0145C56.1206 37.9253 55.8381 37.9108 55.5675 37.9726C55.2968 38.0344 55.0486 38.1701 54.8505 38.3647C54.6524 38.5592 54.5122 38.8048 54.4455 39.0743C54.3787 39.3438 54.3881 39.6265 54.4725 39.891C54.4855 39.9314 54.4965 39.9725 54.5055 40.014L55.341 43.914C55.407 44.2254 55.4027 44.5476 55.3283 44.8571C55.2538 45.1667 55.1112 45.4556 54.9108 45.703C54.7104 45.9503 54.4573 46.1498 54.17 46.2868C53.8826 46.4238 53.5683 46.4949 53.25 46.4949C52.9317 46.4949 52.6173 46.4238 52.33 46.2868C52.0427 46.1498 51.7896 45.9503 51.5892 45.703C51.3888 45.4556 51.2462 45.1667 51.1717 44.8571C51.0973 44.5476 51.093 44.2254 51.159 43.914L51.9945 40.014C52.0035 39.9725 52.0145 39.9314 52.0275 39.891V39.891ZM58.2735 43.2855L58.1235 42.5775C58.8528 43.3377 59.394 44.2581 59.7038 45.2649C60.0137 46.2718 60.0835 47.3372 59.9079 48.3759C59.7322 49.4146 59.3159 50.3977 58.6922 51.2467C58.0684 52.0957 57.2547 52.7869 56.316 53.265C56.0607 53.3951 55.8481 53.5957 55.7032 53.8429C55.5583 54.0901 55.4873 54.3737 55.4985 54.66L55.5 54.75V60H51V54.75V54.738L51.0015 54.66C51.0128 54.3738 50.942 54.0904 50.7974 53.8432C50.6528 53.596 50.4405 53.3954 50.1855 53.265C49.2468 52.7869 48.433 52.0957 47.8093 51.2467C47.1856 50.3977 46.7693 49.4146 46.5936 48.3759C46.4179 47.3372 46.4878 46.2718 46.7977 45.2649C47.1075 44.2581 47.6487 43.3377 48.378 42.5775L48.2265 43.2855C48.066 44.0345 48.0751 44.81 48.253 45.555C48.4309 46.3001 48.7732 46.996 49.2548 47.5917C49.7364 48.1874 50.3451 48.6678 51.0364 48.9979C51.7276 49.328 52.484 49.4993 53.25 49.4993C54.016 49.4993 54.7723 49.328 55.4636 48.9979C56.1549 48.6678 56.7636 48.1874 57.2452 47.5917C57.7268 46.996 58.0691 46.3001 58.247 45.555C58.4249 44.81 58.434 44.0345 58.2735 43.2855V43.2855Z" fill="white"/>
<path fill-rule="evenodd" clip-rule="evenodd" d="M27.5295 42.912L34.5 48.333V53.8455C34.8075 53.9235 35.2875 54 36 54C36.7125 54 37.1925 53.925 37.5 53.8455V48L40.5 45.75V63H9V54C9 48.5085 18.78 44.5905 27.5295 42.912ZM21.7125 54.402L31.5 52.7715V60H19.5V48.27C21.1429 47.6394 22.8207 47.1035 24.525 46.665L21.7125 54.402ZM12 60H16.5V49.6185L16.389 49.677C14.793 50.523 13.626 51.3855 12.891 52.197C12.171 52.995 12 53.5845 12 54V60ZM36 57C35.433 57 34.935 56.9625 34.5 56.8995V60H37.5V56.8995C37.065 56.9625 36.567 57 36 57ZM31.425 49.7415L27.663 46.8165L26.2875 50.598L31.425 49.743V49.7415Z" fill="white"/>
</svg>
