<?xml version="1.0" encoding="iso-8859-1"?>
<!-- Generator: Adobe Illustrator 19.1.0, SVG Export Plug-In . SVG Version: 6.00 Build 0)  -->
<svg version="1.1" id="Capa_1" xmlns="http://www.w3.org/2000/svg" xmlns:xlink="http://www.w3.org/1999/xlink" x="0px" y="0px"
	 viewBox="0 0 489 489" style="enable-background:new 0 0 489 489;" xml:space="preserve">
<g>
	<g>
		<path d="M489,261.75c0-0.6,0-1.2,0-1.8c-1.2-23.5-20.6-42.2-44.4-42.2c-19.2,0-35.5,12.1-41.7,29.1l-32.2-3.2c0-0.3,0-0.6,0-0.9
			c0-40.9-20-77.1-50.8-99.4l27.7-46.7c3.9,1.1,8.1,1.8,12.4,1.8c24.5,0,44.4-19.9,44.4-44.4c0-0.1,0-0.1,0-0.2s0-0.1,0-0.2
			c0-24.4-19.7-44.1-44.2-44.1h-0.1H360c-24.5,0-44.4,19.9-44.4,44.4c0,12.2,5,23.3,13,31.4l-27.7,46.6c-16-7.7-34-12-53-12
			c-31.2,0-59.6,11.6-81.2,30.7l-13-12.2c3.5-6.4,5.5-13.7,5.5-21.5c0-24.5-19.9-44.4-44.4-44.4h-0.1h-0.1
			c-24.4,0-44.2,19.7-44.2,44.1c0,0.1,0,0.1,0,0.2c0,0.1,0,0.1,0,0.2c0,24.5,19.9,44.4,44.4,44.4c8.7,0,16.8-2.5,23.7-6.8l12.9,12.2
			c-16.5,20.9-26.3,47.3-26.3,75.9c0,9.7,1.1,19.2,3.3,28.3l-46.6,15.6c-7.9-12.3-21.7-20.4-37.4-20.4c-24.5,0-44.4,19.9-44.4,44.4
			v0.1v0.1c0,24.4,19.7,44.1,44.1,44.1c0.1,0,0.1,0,0.2,0c0.1,0,0.1,0,0.2,0c24.5,0,44.4-19.9,44.4-44.4c0-1,0-2-0.1-2.9l46.7-15.6
			c19,43.2,62.2,73.4,112.4,73.4c5.6,0,11.1-0.4,16.5-1.1l7.2,31.3c-14.2,7.4-24,22.3-24,39.4c0,24.5,19.9,44.4,44.4,44.4l0,0l0,0
			c3.1,0,6-0.3,8.9-0.9c20.3-4.1,35.5-22.1,35.5-43.5c0-24.1-19.3-43.8-43.3-44.4l-7.2-31.3c42-13.7,74.1-49.5,82.5-93.7l32.2,3.2
			c3.3,21.3,21.7,37.6,43.9,37.6c23.8,0,43.2-18.7,44.4-42.2c0-0.8,0.1-1.5,0.1-2.3l0,0l0,0C489,262.05,489,261.95,489,261.75z
			 M326,304.35c-1.1-7.7-4.7-16-14.4-18.4c-19.5-5-35.4-16.1-35.4-16.1l-12.4,39.2l-2.3,7.4v-0.1l-2,6.2l-6.5-18.5
			c16.1-22.4-3.2-22.2-4.3-22.1c-1.1,0-20.4-0.3-4.3,22.1l-6.5,18.5l-2-6.2v0.1l-2.3-7.4l-12.4-39.2c0,0-15.9,11.2-35.4,16.1
			c-9.9,2.5-13.4,11.1-14.4,19l0,0c-13.7-17-21.9-38.6-21.9-62.1c0-54.8,44.4-99.1,99.1-99.1c54.8,0,99.1,44.4,99.1,99.1
			C347.4,266.05,339.4,287.45,326,304.35z"/>
		<path d="M284.8,217.05c0.6-1.7,1.1-3.5,1.4-5.2c5.4-32.6-10.6-33.7-10.6-33.7s-2.7-5.1-9.7-9c-4.7-2.8-11.2-4.9-19.9-4.2
			c-2.8,0.1-5.4,0.7-7.9,1.5l0,0c-3.2,1.1-6.1,2.6-8.7,4.5c-3.2,2-6.3,4.5-9,7.4c-4.2,4.3-8,10-9.7,17c-1.4,5.2-1.1,10.7,0.1,16.6
			l0,0c0.3,1.7,0.8,3.4,1.4,5.2c-3.2-0.3-7,1.6-3.4,14.1c2.6,9.2,5,11.8,6.9,11.9c1.7,10.9,10.1,24.9,24,29.7c5.7,2,11.9,2,17.6,0
			c13.7-4.9,22.4-18.8,24.1-29.7c1.8-0.1,4.3-2.7,6.9-11.9C291.8,218.65,288,216.75,284.8,217.05z"/>
	</g>
</g>
<g>
</g>
<g>
</g>
<g>
</g>
<g>
</g>
<g>
</g>
<g>
</g>
<g>
</g>
<g>
</g>
<g>
</g>
<g>
</g>
<g>
</g>
<g>
</g>
<g>
</g>
<g>
</g>
<g>
</g>
</svg>
