<svg width="68" height="70" viewBox="0 0 68 70" fill="none" xmlns="http://www.w3.org/2000/svg">
<path d="M65.2109 43.75H62.0234L59.7656 16.9531C59.6771 14.6745 58.8138 12.7376 57.1758 11.1426C55.5378 9.54753 53.6562 8.75 51.5312 8.75H36.7891V2.87109C36.7891 0.957031 35.8594 0 34 0C32.1406 0 31.2109 0.957031 31.2109 2.87109V8.75H16.4688C14.3438 8.75 12.4622 9.54753 10.8242 11.1426C9.1862 12.7376 8.32292 14.6745 8.23438 16.9531L5.97656 43.75H2.78906C1.99219 43.75 1.32812 44.0234 0.796875 44.5703C0.265625 45.1172 0 45.8008 0 46.6211C0 47.5326 0.265625 48.2617 0.796875 48.8086C1.32812 49.3555 1.99219 49.6289 2.78906 49.6289H13.2812L8.5 66.1719C8.23438 66.901 8.32292 67.6302 8.76562 68.3594C9.20833 69.0885 9.78385 69.5443 10.4922 69.7266H11.2891C12.4401 69.7266 13.4141 69.043 14.2109 67.6758L19.2578 49.6289H31.2109V61.25C31.2109 63.1641 32.1406 64.1211 34 64.1211C35.8594 64.1211 36.7891 63.1641 36.7891 61.25V49.6289H48.7422L53.7891 67.9492C54.0547 69.3164 55.0286 70 56.7109 70H57.5078C59.1901 69.362 59.8542 68.1771 59.5 66.4453L54.7188 49.6289H65.2109C66.0078 49.6289 66.6719 49.3555 67.2031 48.8086C67.7344 48.2617 68 47.5326 68 46.6211C68 45.8008 67.7344 45.1172 67.2031 44.5703C66.6719 44.0234 66.0078 43.75 65.2109 43.75ZM11.5547 43.75L13.9453 17.2266C13.9453 16.4974 14.2331 15.8822 14.8086 15.3809C15.3841 14.8796 16.026 14.6289 16.7344 14.6289H51.5312C52.3281 14.6289 53.0143 14.8796 53.5898 15.3809C54.1654 15.8822 54.4531 16.4974 54.4531 17.2266L56.7109 43.75H11.5547ZM43.0312 18.7305C38.6927 24.6549 36.3464 27.8451 35.9922 28.3008C32.8932 26.1133 30.8125 24.6549 29.75 23.9258L27.7578 22.1484L17.5312 36.2305C17.0885 36.7773 16.9336 37.4837 17.0664 38.3496C17.1992 39.2155 17.5755 39.8307 18.1953 40.1953C18.8151 40.651 19.3464 40.8789 19.7891 40.8789C20.8516 40.8789 21.6042 40.4688 22.0469 39.6484L28.9531 30.3516C32.3177 32.7214 34.4206 34.1341 35.2617 34.5898C36.1029 35.0456 36.8333 35.1823 37.4531 35L38.5156 34.7266L39.0469 33.7695C39.3125 33.4049 39.9102 32.6074 40.8398 31.377C41.7695 30.1465 42.8984 28.5742 44.2266 26.6602C45.5547 24.7461 46.5729 23.3333 47.2812 22.4219C47.724 21.875 47.901 21.1686 47.8125 20.3027C47.724 19.4368 47.3698 18.776 46.75 18.3203C46.3073 17.7734 45.6875 17.5456 44.8906 17.6367C44.0938 17.7279 43.474 18.0924 43.0312 18.7305Z" fill="white"/>
</svg>
