<svg width="171" height="172" viewBox="0 0 71 72" fill="none" xmlns="http://www.w3.org/2000/svg">
<path d="M58.5454 21.39C58.2668 21.0325 57.9116 20.744 57.5066 20.5465C57.1017 20.3489 56.6577 20.2475 56.2084 20.25H23.6667V18.75C23.6704 17.444 24.0941 16.175 24.8736 15.1354C25.6532 14.0959 26.7459 13.3426 27.9859 12.99C28.7825 13.7695 29.8376 14.2189 30.9442 14.25H33.9025C35.0794 14.25 36.2081 13.7759 37.0403 12.932C37.8725 12.0881 38.34 10.9435 38.34 9.75C38.34 8.55653 37.8725 7.41193 37.0403 6.56802C36.2081 5.72411 35.0794 5.25 33.9025 5.25H30.9442C30.2773 5.25093 29.6193 5.40531 29.0197 5.70151C28.4202 5.99771 27.8947 6.42801 27.4829 6.96C24.7561 7.45874 22.2884 8.91202 20.5098 11.0665C18.7312 13.221 17.7545 15.9402 17.75 18.75V20.25H14.7917C14.3423 20.2475 13.8983 20.3489 13.4934 20.5465C13.0884 20.744 12.7332 21.0325 12.4546 21.39C12.1582 21.7462 11.9478 22.1675 11.84 22.6206C11.7321 23.0736 11.7299 23.5459 11.8334 24L13.6675 31.47C14.1055 33.1906 15.0359 34.7412 16.3415 35.9264C17.6471 37.1116 19.2695 37.8784 21.0042 38.13L23.3117 59.13H20.7084C19.9238 59.13 19.1713 59.4461 18.6165 60.0087C18.0617 60.5713 17.75 61.3343 17.75 62.13C17.75 62.9256 18.0617 63.6887 18.6165 64.2513C19.1713 64.8139 19.9238 65.13 20.7084 65.13H50.2917C51.0763 65.13 51.8288 64.8139 52.3835 64.2513C52.9383 63.6887 53.25 62.9256 53.25 62.13C53.25 61.3343 52.9383 60.5713 52.3835 60.0087C51.8288 59.4461 51.0763 59.13 50.2917 59.13H47.6884L49.9959 38.13C51.7183 37.8598 53.3241 37.0813 54.613 35.8916C55.902 34.7019 56.8169 33.1536 57.2438 31.44L59.1667 24C59.2702 23.5459 59.2679 23.0736 59.1601 22.6206C59.0522 22.1675 58.8418 21.7462 58.5454 21.39V21.39ZM41.7125 59.25H29.2875L26.98 38.25H44.02L41.7125 59.25ZM51.5046 30C51.3426 30.6656 50.9607 31.2549 50.4225 31.6698C49.8842 32.0846 49.2221 32.3 48.5463 32.28H22.365C21.6892 32.3 21.0271 32.0846 20.4888 31.6698C19.9506 31.2549 19.5687 30.6656 19.4067 30L18.5784 26.25H52.4217L51.5046 30Z" fill="white"/>
</svg>
